<svg width="142" height="139" viewBox="0 0 142 139" fill="none" xmlns="http://www.w3.org/2000/svg">
<g clip-path="url(#clip0_1_23)">
<rect width="142" height="139" fill="#4A4A4A"/>
<path d="M71.9973 21.377V0.99613C71.9973 0.73194 71.8917 0.47857 71.7037 0.29176C71.5158 0.104949 71.2608 0 70.995 0C70.7292 0 70.4742 0.104949 70.2862 0.29176C70.0983 0.47857 69.9927 0.73194 69.9927 0.99613V21.377H71.9973Z" fill="white"/>
<path d="M45.8766 28.3299C46.4479 27.9813 47.0293 27.6526 47.6106 27.3338L37.3468 9.70231C37.2081 9.48549 36.9905 9.3303 36.7394 9.26918C36.4883 9.20805 36.2231 9.24571 35.9993 9.37429C35.7755 9.50286 35.6103 9.71241 35.5383 9.95916C35.4662 10.2059 35.4929 10.4708 35.6128 10.6984L45.8766 28.3299Z" fill="white"/>
<path d="M10.5245 34.5956C10.3929 34.8231 10.3571 35.093 10.4246 35.3467C10.4922 35.6004 10.6577 35.8173 10.8853 35.9503L28.6165 46.1806C28.9372 45.6028 29.268 45.0251 29.6188 44.4573L11.8976 34.227C11.7832 34.1612 11.6569 34.1184 11.5258 34.1013C11.3947 34.0842 11.2615 34.093 11.1339 34.1273C11.0062 34.1616 10.8867 34.2206 10.7821 34.3009C10.6775 34.3813 10.5899 34.4815 10.5245 34.5956Z" fill="white"/>
<path d="M106.658 8.48703C106.544 8.42075 106.418 8.37745 106.288 8.35961C106.157 8.34176 106.024 8.34973 105.896 8.38304C105.769 8.41636 105.649 8.47437 105.544 8.55375C105.439 8.63313 105.351 8.73232 105.285 8.84564L94.4595 27.3737C95.0409 27.7024 95.6222 28.0311 96.1936 28.3698L107.019 9.85173C107.085 9.73863 107.129 9.61356 107.147 9.4837C107.165 9.35383 107.157 9.22172 107.123 9.09494C107.09 8.96816 107.031 8.8492 106.952 8.74488C106.872 8.64056 106.772 8.55294 106.658 8.48703Z" fill="white"/>
<path d="M132.087 35.532C132.202 35.4669 132.303 35.3799 132.383 35.2759C132.464 35.172 132.524 35.0532 132.558 34.9263C132.593 34.7995 132.602 34.6671 132.584 34.5368C132.567 34.4066 132.524 34.281 132.458 34.1673C132.392 34.054 132.303 33.9548 132.198 33.8754C132.093 33.796 131.974 33.738 131.846 33.7047C131.719 33.6714 131.586 33.6634 131.455 33.6812C131.324 33.6991 131.198 33.7424 131.085 33.8087L112.431 44.537C112.772 45.0948 113.103 45.6726 113.434 46.2603L132.087 35.532Z" fill="white"/>
<path d="M22.5524 69.5C22.5524 69.1713 22.5524 68.8326 22.5524 68.5039H1.00233C0.736495 68.5039 0.481549 68.6088 0.293576 68.7956C0.105602 68.9824 0 69.2358 0 69.5C0 69.7642 0.105602 70.0176 0.293576 70.2044C0.481549 70.3912 0.736495 70.4961 1.00233 70.4961H22.5825C22.5725 70.1674 22.5524 69.8387 22.5524 69.5Z" fill="white"/>
<path d="M140.998 68.5039H119.418C119.418 68.8326 119.418 69.1713 119.418 69.5C119.418 69.8287 119.418 70.1674 119.418 70.4961H140.998C141.263 70.4961 141.518 70.3912 141.706 70.2044C141.894 70.0176 142 69.7642 142 69.5C142 69.2358 141.894 68.9824 141.706 68.7956C141.518 68.6088 141.263 68.5039 140.998 68.5039Z" fill="white"/>
<path d="M131.105 103.05L113.383 92.8194C113.063 93.3972 112.732 93.9749 112.381 94.5427L130.102 104.773C130.255 104.859 130.428 104.904 130.604 104.902C130.822 104.9 131.034 104.827 131.207 104.694C131.38 104.561 131.504 104.375 131.561 104.165C131.618 103.955 131.604 103.732 131.522 103.531C131.439 103.33 131.293 103.161 131.105 103.05Z" fill="white"/>
<path d="M9.90301 103.468C9.789 103.534 9.68919 103.622 9.60931 103.726C9.52944 103.83 9.47107 103.949 9.43754 104.076C9.40402 104.203 9.39601 104.335 9.41396 104.465C9.43192 104.595 9.47549 104.72 9.54218 104.833C9.63049 104.985 9.75764 105.111 9.91078 105.198C10.0639 105.286 10.2376 105.331 10.4142 105.331C10.5912 105.333 10.765 105.284 10.9154 105.191L29.5687 94.473C29.2179 93.9052 28.8972 93.3274 28.5664 92.7397L9.90301 103.468Z" fill="white"/>
<path d="M96.1234 110.67C95.5521 111.019 94.9707 111.347 94.3793 111.666L104.643 129.298C104.731 129.45 104.859 129.576 105.012 129.663C105.165 129.751 105.339 129.796 105.515 129.796C105.692 129.798 105.866 129.749 106.016 129.656C106.244 129.523 106.409 129.306 106.477 129.053C106.545 128.799 106.509 128.529 106.377 128.302L96.1234 110.67Z" fill="white"/>
<path d="M34.9713 129.148C34.905 129.262 34.862 129.388 34.8448 129.518C34.8276 129.648 34.8364 129.78 34.8709 129.907C34.9054 130.034 34.9648 130.153 35.0456 130.257C35.1265 130.361 35.2273 130.448 35.3421 130.513C35.5711 130.644 35.8427 130.679 36.0979 130.612C36.3531 130.545 36.5714 130.381 36.7053 130.154L47.5405 111.626C46.9491 111.298 46.3678 110.979 45.8065 110.63L34.9713 129.148Z" fill="white"/>
<path d="M69.9927 117.623V138.004C69.9927 138.268 70.0983 138.521 70.2862 138.708C70.4742 138.895 70.7292 139 70.995 139C71.2608 139 71.5158 138.895 71.7037 138.708C71.8917 138.521 71.9973 138.268 71.9973 138.004V117.623H69.9927Z" fill="white"/>
</g>
<defs>
<clipPath id="clip0_1_23">
<rect width="142" height="139" fill="white"/>
</clipPath>
</defs>
</svg>
