<svg width="361" height="50" viewBox="0 0 361 50" fill="none" xmlns="http://www.w3.org/2000/svg">
<path d="M37.2165 21.76H39.2996V13.44H42.5746V11.35H37.2165V21.76ZM52.1291 23.28V10.6C52.1238 9.75047 51.881 8.91929 51.428 8.20017C50.975 7.48105 50.3298 6.90259 49.5652 6.53C49.8825 7.14898 50.0473 7.83464 50.0459 8.53V21.21C50.0563 21.8781 49.9169 22.54 49.6379 23.1474C49.3589 23.7547 48.9474 24.292 48.4335 24.72C48.9435 25.1929 49.3534 25.7631 49.6389 26.3969C49.9245 27.0307 50.0799 27.7152 50.096 28.41V42.51C50.0801 43.7318 49.5802 44.8976 48.7055 45.7522C47.8308 46.6069 46.6527 47.0807 45.4289 47.07H31.8984V49.15H47.5621C48.7685 49.1345 49.9211 48.649 50.7742 47.7972C51.6273 46.9454 52.1135 45.7945 52.1291 44.59V30.49C52.1097 29.7929 51.9498 29.1069 51.659 28.473C51.3682 27.839 50.9524 27.27 50.4365 26.8C50.9692 26.3814 51.3987 25.8464 51.6921 25.2362C51.9855 24.6261 52.135 23.9568 52.1291 23.28Z" fill="#636466"/>
<path d="M37.2163 39.62H39.2995V31.28H42.5744V29.15H37.2163V39.62ZM70.2663 39.62H72.3495V13.44H75.6245V11.35H70.2763L70.2663 39.62Z" fill="#636466"/>
<path d="M82.6251 6.53C82.9424 7.14898 83.1072 7.83464 83.1058 8.53V42.53C83.0903 43.7346 82.6041 44.8854 81.751 45.7372C80.8979 46.589 79.7453 47.0744 78.5389 47.09H67.4621C66.7663 47.0865 66.0807 46.9223 65.4591 46.61C65.8323 47.3735 66.4116 48.0177 67.1318 48.47C67.852 48.9223 68.6845 49.1648 69.5353 49.17H80.6321C81.8385 49.1544 82.991 48.669 83.8442 47.8172C84.6973 46.9654 85.1834 45.8146 85.199 44.61V10.61C85.1959 9.75745 84.9529 8.92293 84.4978 8.20156C84.0428 7.48019 83.3939 6.90099 82.6251 6.53ZM103.336 21.76H105.42V13.44H108.705V11.35H103.336V21.76ZM115.605 30.76C116.381 30.4021 117.038 29.8293 117.498 29.1096C117.958 28.3899 118.201 27.5536 118.199 26.7V10.6C118.2 9.74405 117.958 8.90528 117.503 8.18003C117.048 7.45478 116.397 6.87248 115.625 6.5C115.938 7.12067 116.102 7.80522 116.106 8.5V24.65C116.113 25.5034 115.874 26.3409 115.418 27.0625C114.961 27.7841 114.307 28.3595 113.532 28.72L116.617 47.07H110.928L111.278 49.15H118.68L115.605 30.76ZM106.171 29.11H103.336V47.07H98.0184V49.16H105.42V31.28H106.521L106.171 29.11ZM135.405 39.58H137.498V13.44H140.773V11.35H135.405V39.58Z" fill="#636466"/>
<path d="M147.764 6.53C148.082 7.14857 148.247 7.8345 148.244 8.53V42.53C148.229 43.7346 147.743 44.8854 146.89 45.7372C146.036 46.589 144.884 47.0744 143.677 47.09H132.561C131.865 47.0865 131.179 46.9222 130.558 46.61C130.931 47.3735 131.51 48.0177 132.23 48.47C132.951 48.9223 133.783 49.1648 134.634 49.17H145.741C146.947 49.1544 148.1 48.669 148.953 47.8172C149.806 46.9654 150.292 45.8145 150.308 44.61V10.61C150.307 9.76064 150.069 8.92833 149.619 8.20728C149.17 7.48622 148.527 6.90521 147.764 6.53ZM168.465 39.62H170.558V13.44H173.833V11.35H168.465V39.62Z" fill="#636466"/>
<path d="M180.824 6.52997C181.141 7.14895 181.306 7.83461 181.304 8.52997V42.53C181.289 43.7345 180.803 44.8854 179.95 45.7372C179.097 46.589 177.944 47.0744 176.738 47.09H163.157V49.17H178.821C180.027 49.1544 181.18 48.669 182.033 47.8172C182.886 46.9654 183.372 45.8145 183.388 44.61V10.61C183.384 9.75874 183.142 8.92545 182.689 8.20439C182.236 7.48334 181.59 6.90332 180.824 6.52997ZM201.906 6.04997V47.05H196.588V49.14H203.989V6.04997H201.906ZM234.835 6.04997V47.05H228.927L229.517 49.14H236.929V6.04997H234.835ZM222.006 28.28V47.07H216.688V49.16H224.089V35.47L222.006 28.28ZM254.325 31.28H260.444V29.15H252.242C251.546 29.1465 250.86 28.9822 250.239 28.67C250.603 29.4465 251.18 30.104 251.903 30.566C252.627 31.028 253.466 31.2756 254.325 31.28ZM257.159 34.01L255.066 34.49V39.62H257.159V34.01ZM267.425 6.52997C267.742 7.14895 267.907 7.83461 267.906 8.52997V17.28L262.527 18.52V21.08L269.989 19.35V10.6C269.983 9.75044 269.741 8.91926 269.288 8.20015C268.835 7.48103 268.189 6.90256 267.425 6.52997Z" fill="#636466"/>
<path d="M267.425 24.33C267.742 24.949 267.907 25.6346 267.906 26.33V42.53C267.89 43.7345 267.404 44.8854 266.551 45.7372C265.698 46.589 264.545 47.0744 263.339 47.09H252.232C251.536 47.0865 250.85 46.9222 250.229 46.61C250.602 47.3735 251.181 48.0177 251.901 48.47C252.622 48.9223 253.454 49.1647 254.305 49.17H265.402C266.608 49.1544 267.761 48.669 268.614 47.8172C269.467 46.9654 269.953 45.8145 269.969 44.61V28.4C269.966 27.5523 269.727 26.7221 269.278 26.003C268.828 25.2839 268.186 24.7044 267.425 24.33ZM255.066 11.33V21.76H257.159V13.44H260.434V11.35L255.066 11.33ZM288.797 29.15H288.116V47.07H282.788V49.16H290.189V33.63L288.797 29.15ZM303.96 6.04997H301.216L294.977 25.46L301.887 47.07H295.878L296.459 48.91L296.519 49.16H303.98L297.07 27.54L303.98 6.04997H303.96ZM321.366 6.04997V47.05H316.058V49.14H323.45V6.04997H321.366Z" fill="#636466"/>
<path d="M352.534 31.19L358.252 25.47L360.345 27.56L354.617 33.28L352.534 31.19ZM0 31.19L5.71866 25.48L7.81182 27.56L2.12321 33.28L0 31.19Z" fill="#636466"/>
<path d="M46.0797 17.28C46.0837 17.9467 45.9371 18.6058 45.6511 19.2082C45.365 19.8107 44.9467 20.341 44.4272 20.76C44.9372 21.2329 45.3471 21.8031 45.6327 22.4369C45.9182 23.0707 46.0737 23.7552 46.0898 24.45V38.55C46.0742 39.7545 45.588 40.9054 44.7349 41.7572C43.8818 42.609 42.7292 43.0945 41.5228 43.11H25.8491V0H41.5128C42.7224 0.00526267 43.881 0.48738 44.7363 1.34141C45.5916 2.19544 46.0745 3.35223 46.0797 4.56V17.28ZM38.6185 7.39H33.2503V17.8H38.6185V7.39ZM38.6185 25.19H33.2503V35.66H38.6185V25.19ZM74.5729 0C75.7825 0.00526267 76.941 0.48738 77.7963 1.34141C78.6517 2.19544 79.1345 3.35223 79.1398 4.56V38.56C79.1242 39.7645 78.6381 40.9154 77.785 41.7672C76.9318 42.619 75.7793 43.1044 74.5729 43.12H63.456C62.2481 43.1096 61.0925 42.6258 60.2383 41.7729C59.3841 40.9199 58.8996 39.7662 58.8891 38.56V4.56C58.8891 3.35061 59.3703 2.19076 60.2268 1.33559C61.0832 0.480424 62.2448 0 63.456 0H74.5729ZM71.6685 7.39H66.3104V35.66H71.6785L71.6685 7.39ZM105.229 43.11L102.225 25.19H99.3904V43.11H91.9892V0H107.653C108.249 0.00392663 108.838 0.124988 109.387 0.356277C109.936 0.587566 110.434 0.92455 110.852 1.34799C111.271 1.77143 111.602 2.27302 111.826 2.82414C112.05 3.37526 112.164 3.96511 112.16 4.56V20.7C112.158 21.558 111.909 22.3974 111.442 23.1175C110.975 23.8377 110.309 24.4079 109.526 24.76L112.61 43.11H105.229ZM104.739 7.39H99.3704V17.8H104.739V7.39ZM139.711 0C140.921 0.00526267 142.08 0.48738 142.935 1.34141C143.79 2.19544 144.273 3.35223 144.278 4.56V38.56C144.263 39.7645 143.777 40.9154 142.924 41.7672C142.07 42.619 140.918 43.1044 139.711 43.12H128.615C127.407 43.1096 126.251 42.6258 125.397 41.7729C124.543 40.9199 124.058 39.7662 124.048 38.56V4.56C124.048 3.36093 124.521 2.21008 125.364 1.35662C126.208 0.503159 127.354 0.0157771 128.555 0H139.711ZM136.807 7.39H131.439V35.66H136.807V7.39ZM172.772 0C173.981 0.00526267 175.14 0.48738 175.995 1.34141C176.85 2.19544 177.333 3.35223 177.338 4.56V38.56C177.323 39.7645 176.837 40.9154 175.984 41.7672C175.13 42.619 173.978 43.1044 172.772 43.12H157.108V0H172.772ZM169.877 7.39H164.509V35.66H169.877V7.39ZM190.538 0H197.94V43.11H190.538V0ZM230.879 0V43.11H223.478L218.05 24.28V43.11H210.679V0H218.02L223.448 17.67V0H230.879ZM259.373 17.8C260.582 17.8053 261.741 18.2874 262.596 19.1414C263.451 19.9954 263.934 21.1522 263.94 22.36V38.56C263.924 39.7645 263.438 40.9154 262.585 41.7672C261.732 42.619 260.579 43.1044 259.373 43.12H248.276C247.071 43.1043 245.921 42.6183 245.071 41.7659C244.221 40.9136 243.739 39.7627 243.729 38.56V29.69L251.13 27.97V35.67H256.498V25.19H248.296C247.697 25.1913 247.105 25.0749 246.551 24.8475C245.998 24.62 245.495 24.286 245.071 23.8644C244.647 23.4428 244.31 22.942 244.08 22.3904C243.849 21.8389 243.73 21.2475 243.729 20.65V4.56C243.729 3.35407 244.207 2.19724 245.059 1.34264C245.912 0.48805 247.068 0.00528917 248.276 0H259.393C260.602 0.00526267 261.761 0.48738 262.616 1.34141C263.471 2.19544 263.954 3.35223 263.96 4.56V13.28L256.498 15.01V7.39H251.13V17.8H259.373ZM291.021 21.5L297.931 43.12H290.47L290.41 42.87L284.861 25.2H284.18V43.11H276.779V0H284.18V17.8H284.791L290.47 0H297.991L291.021 21.5ZM310.049 0H317.451V43.11H310.049V0Z" fill="white"/>
</svg>
