<svg width="370" height="49" viewBox="0 0 370 49" fill="none" xmlns="http://www.w3.org/2000/svg">
<path d="M5.71866 15.6946L0 21.3608L5.71665 27.029L11.4353 21.3628L5.71866 15.6946Z" fill="white"/>
<path d="M358.235 15.6907L352.512 21.3527L358.233 27.0167L363.956 21.3547L358.235 15.6907Z" fill="white"/>
<path d="M46.8738 21.5681H48.9569V13.3214H52.2317V11.2499H46.8738V21.5681Z" fill="#636466"/>
<path d="M61.7859 23.0746V10.5065C61.7775 9.66391 61.5323 8.84029 61.0777 8.12782C60.6231 7.41535 59.9772 6.84215 59.2121 6.4724C59.5252 7.08747 59.6898 7.76606 59.6929 8.45475V21.0229C59.6986 21.6893 59.5521 22.3484 59.2642 22.9509C58.9763 23.5533 58.5545 24.0836 58.0304 24.5019C58.5426 24.9689 58.954 25.5337 59.2398 26.1623C59.5255 26.7909 59.6796 27.4702 59.6929 28.1594V42.1449C59.6748 43.3354 59.1889 44.4721 58.3382 45.3141C57.4875 46.156 56.339 46.6369 55.1361 46.6548H41.556V48.7263H57.2192C58.4239 48.7059 59.5736 48.2232 60.4256 47.38C61.2776 46.5367 61.7654 45.3989 61.7859 44.2066V30.221C61.7654 29.5303 61.6051 28.8507 61.3143 28.2225C61.0236 27.5942 60.6085 27.0301 60.0934 26.5636C60.6222 26.1452 61.049 25.6143 61.342 25.0103C61.635 24.4062 61.7867 23.7447 61.7859 23.0746Z" fill="#636466"/>
<path d="M79.9327 39.2705H82.0158V13.3214H85.2907V11.2499H79.9327V39.2705Z" fill="#636466"/>
<path d="M92.281 6.4724C92.5903 7.0888 92.7547 7.76653 92.7617 8.45475V42.1548C92.7436 43.348 92.2567 44.4872 91.4041 45.331C90.5516 46.1747 89.4005 46.6567 88.1949 46.6746H77.1186C76.4224 46.6741 75.7362 46.5111 75.1156 46.1988C75.4869 46.957 76.0657 47.5968 76.7864 48.0454C77.507 48.494 78.3403 48.7334 79.1916 48.7362H90.278C91.4827 48.7209 92.6337 48.2411 93.4865 47.399C94.3394 46.5568 94.8266 45.4186 94.8448 44.2264V10.5263C94.8398 9.68165 94.5973 8.85503 94.1445 8.13904C93.6917 7.42305 93.0465 6.84596 92.281 6.4724Z" fill="#636466"/>
<path d="M112.992 21.5681H115.075V13.3214H118.36V11.2499H112.992V21.5681Z" fill="#636466"/>
<path d="M125.25 30.5283C126.025 30.1726 126.681 29.6046 127.141 28.8915C127.601 28.1784 127.844 27.35 127.844 26.5041V10.5065C127.843 9.65953 127.602 8.82978 127.147 8.11264C126.691 7.3955 126.041 6.82009 125.27 6.45258C125.583 7.06752 125.748 7.74619 125.75 8.43493V24.4326C125.756 25.2769 125.517 26.1051 125.063 26.8198C124.609 27.5345 123.958 28.1059 123.187 28.4667L126.271 46.6548H120.583L120.933 48.7164H128.334L125.25 30.5283Z" fill="#636466"/>
<path d="M145.059 39.2705H147.152V13.3214H150.427V11.2499H145.059V39.2705Z" fill="#636466"/>
<path d="M157.407 6.4724C157.721 7.08709 157.886 7.76593 157.888 8.45475V42.1548C157.873 43.3471 157.388 44.4863 156.537 45.3303C155.686 46.1744 154.536 46.6566 153.331 46.6746H142.215C141.519 46.6756 140.832 46.5125 140.212 46.1988C140.582 46.9555 141.16 47.5943 141.878 48.0428C142.597 48.4913 143.428 48.7315 144.278 48.7362H155.384C156.588 48.7184 157.738 48.2378 158.59 47.3962C159.442 46.5545 159.93 45.4178 159.951 44.2264V10.5263C159.949 9.68349 159.71 8.85785 159.261 8.14186C158.812 7.42587 158.17 6.8478 157.407 6.4724Z" fill="#636466"/>
<path d="M178.118 39.2705H180.211V13.3214H183.486V11.2499H178.118V39.2705Z" fill="#636466"/>
<path d="M190.466 6.4724C190.78 7.08709 190.945 7.76593 190.947 8.45475V42.1548C190.931 43.3471 190.447 44.4863 189.596 45.3303C188.745 46.1744 187.595 46.6566 186.39 46.6746H172.81V48.7362H188.473C189.677 48.7184 190.827 48.2378 191.679 47.3962C192.531 46.5545 193.019 45.4178 193.04 44.2264V10.5263C193.035 9.68036 192.792 8.85254 192.337 8.13623C191.882 7.41993 191.234 6.84365 190.466 6.4724Z" fill="#636466"/>
<path d="M211.557 5.99663V46.6548H206.24V48.7263H213.64V5.99663H211.557Z" fill="#636466"/>
<path d="M244.486 5.99663V46.6548H238.577L239.168 48.7263H246.579V5.99663H244.486Z" fill="#636466"/>
<path d="M277.064 6.4724C277.378 7.08709 277.543 7.76593 277.545 8.45475V17.1276L272.167 18.3665V20.904L279.628 19.1991V10.5065C279.624 9.66421 279.382 8.83989 278.929 8.1269C278.475 7.41392 277.83 6.84078 277.064 6.4724Z" fill="#636466"/>
<path d="M277.064 24.1154C277.379 24.7297 277.544 25.4088 277.545 26.0977V42.135C277.53 43.3272 277.045 44.4665 276.194 45.3105C275.343 46.1545 274.193 46.6368 272.988 46.6548H261.882C261.186 46.6528 260.5 46.4899 259.879 46.179C260.253 46.935 260.833 47.5729 261.552 48.0211C262.272 48.4693 263.104 48.7101 263.955 48.7164H275.061C276.265 48.6986 277.415 48.218 278.267 47.3764C279.119 46.5347 279.607 45.398 279.628 44.2066V28.1495C279.621 27.3079 279.377 26.485 278.924 25.7727C278.471 25.0603 277.827 24.4865 277.064 24.1154Z" fill="#636466"/>
<path d="M264.716 11.2499V21.5681H266.809V13.3214H270.084V11.2499H264.716Z" fill="#636466"/>
<path d="M313.618 5.99663H310.864L304.625 25.2354L311.535 46.6548H305.516L306.097 48.4785L306.157 48.7263H313.618L306.708 27.2971L313.618 5.99663Z" fill="#636466"/>
<path d="M331.024 5.99663V46.6548H325.716V48.7263H333.107V5.99663H331.024Z" fill="#636466"/>
<path d="M367.91 25.2542L362.19 30.9182L364.279 32.9854L370 27.3214L367.91 25.2542Z" fill="#636466"/>
<path d="M15.4074 25.2909L9.68555 30.9539L11.7746 33.0215L17.4965 27.3585L15.4074 25.2909Z" fill="#636466"/>
<path d="M55.7369 17.1276C55.7386 17.7881 55.5912 18.4406 55.3053 19.0374C55.0193 19.6342 54.6022 20.1602 54.0844 20.5769C54.598 21.0434 55.011 21.6079 55.2984 22.2364C55.5858 22.865 55.7418 23.5446 55.7569 24.2343V38.2199C55.7362 39.4113 55.2482 40.548 54.3959 41.3897C53.5436 42.2313 52.394 42.7119 51.1902 42.7297H35.507V1.52588e-05H51.1701C52.3781 0.0103666 53.5336 0.489877 54.3877 1.33527C55.2419 2.18065 55.7264 3.32427 55.7369 4.51979V17.1276ZM48.2658 7.35456H42.9079V17.643H48.2658V7.35456ZM48.2658 24.9975H42.9079V35.3454H48.2658V24.9975Z" fill="white"/>
<path d="M84.2291 1.09173e-05C85.437 0.0103623 86.5926 0.489872 87.4467 1.33526C88.3009 2.18065 88.7854 3.32427 88.7959 4.51978V38.2199C88.7752 39.4113 88.2871 40.548 87.4348 41.3897C86.5826 42.2313 85.4329 42.7119 84.2291 42.7297H73.1127C71.9048 42.7245 70.7478 42.248 69.8928 41.4037C69.0378 40.5593 68.5538 39.4152 68.5459 38.2199V4.51978C68.5446 3.92587 68.6618 3.33755 68.8908 2.7886C69.1199 2.23964 69.4562 1.74087 69.8805 1.32091C70.3049 0.900948 70.8088 0.568071 71.3635 0.341394C71.9181 0.114717 72.5126 -0.00129582 73.1127 1.09173e-05H84.2291ZM81.3348 7.32482H75.9669V35.3454H81.3348V7.32482Z" fill="white"/>
<path d="M114.884 42.7297L111.88 24.9678H109.046V42.7297H101.645V1.52588e-05H117.308C118.51 0.0130811 119.657 0.495344 120.501 1.34184C121.345 2.18833 121.817 3.33052 121.815 4.51979V20.5174C121.812 21.3676 121.562 22.1991 121.095 22.9126C120.628 23.6261 119.964 24.1916 119.181 24.5416L122.265 42.7297H114.884ZM114.394 7.32482H109.026V17.643H114.394V7.32482Z" fill="white"/>
<path d="M149.365 1.52588e-05C150.573 0.0103666 151.729 0.489877 152.583 1.33527C153.437 2.18065 153.922 3.32427 153.932 4.51979V38.2199C153.912 39.4113 153.423 40.548 152.571 41.3897C151.719 42.2313 150.569 42.7119 149.365 42.7297H138.259C137.053 42.7219 135.898 42.2443 135.046 41.4002C134.193 40.5561 133.71 39.4135 133.702 38.2199V4.51979C133.701 3.92671 133.818 3.3392 134.046 2.7909C134.275 2.24259 134.61 1.74425 135.033 1.32442C135.457 0.904595 135.959 0.571514 136.513 0.344253C137.066 0.116992 137.66 1.38264e-05 138.259 1.52588e-05H149.365ZM146.461 7.32482H141.103V35.3454H146.461V7.32482Z" fill="white"/>
<path d="M182.424 1.52588e-05C183.632 0.0103666 184.788 0.489877 185.642 1.33527C186.496 2.18065 186.981 3.32427 186.991 4.51979V38.2199C186.97 39.4113 186.482 40.548 185.63 41.3897C184.778 42.2313 183.628 42.7119 182.424 42.7297H166.761V1.52588e-05H182.424ZM179.52 7.32482H174.162V35.3454H179.52V7.32482Z" fill="white"/>
<path d="M200.191 1.52588e-05H207.591V42.7297H200.191V1.52588e-05Z" fill="white"/>
<path d="M240.52 1.52588e-05V42.7297H233.119L227.691 24.0658V42.7297H220.33V1.52588e-05H227.671L233.099 17.5241V1.52588e-05H240.52Z" fill="white"/>
<path d="M269.022 17.643C270.23 17.6508 271.386 18.1298 272.239 18.976C273.092 19.8222 273.574 20.9674 273.579 22.1628V38.2199C273.561 39.4104 273.075 40.5471 272.225 41.389C271.374 42.2309 270.225 42.7118 269.022 42.7297H257.916C256.714 42.7142 255.566 42.2335 254.718 41.3905C253.87 40.5475 253.39 39.4093 253.379 38.2199V29.4281L260.78 27.7134V35.3454H266.148V24.9678H257.946C257.346 24.9691 256.752 24.8531 256.197 24.6264C255.642 24.3997 255.138 24.0669 254.714 23.6469C254.29 23.2269 253.953 22.7282 253.724 22.1792C253.495 21.6303 253.378 21.0419 253.379 20.448V4.51979C253.379 3.32107 253.86 2.17145 254.717 1.32382C255.573 0.476202 256.735 1.52588e-05 257.946 1.52588e-05H269.052C270.259 0.0104008 271.414 0.490236 272.267 1.3359C273.119 2.18156 273.601 3.32518 273.609 4.51979V13.1629L266.148 14.8677V7.32482H260.79V17.643H269.022Z" fill="white"/>
<path d="M300.659 21.3104L307.569 42.7297H300.108L300.048 42.4918L294.49 24.9678H293.809V42.7297H286.428V1.52588e-05H293.819V17.643H294.38L300.058 1.52588e-05H307.579L300.659 21.3104Z" fill="white"/>
<path d="M319.657 1.52588e-05H327.058V42.7297H319.657V1.52588e-05Z" fill="white"/>
</svg>
