<svg width="364" height="79" viewBox="0 0 364 79" fill="none" xmlns="http://www.w3.org/2000/svg">
<path d="M120.042 11.43C127.193 9 127.783 0 120.693 0C118.69 0 116.406 1.37 114.804 4.17L105.159 20.73C104.766 21.4383 104.306 22.1079 103.787 22.73C101.323 19.34 102.044 14.28 105.5 12.06L104.158 10.27C96.6864 15.02 98.8797 28.75 111.349 28.75C121.965 28.74 126.892 16 120.042 11.43ZM111.238 26C109.448 26.0451 107.676 25.621 106.101 24.77C106.768 23.9801 107.364 23.1336 107.883 22.24L113.892 11.87L114.894 11.97C123.186 13.72 119.871 26 111.238 26ZM115.074 9.79L117.949 4.86C120.552 0.38 123.878 3.01 122.095 6.36C120.723 8.93 118.7 9.72 115.074 9.79Z" fill="white"/>
<path d="M259.603 19L259.363 19.27C257.644 21.4528 255.406 23.1717 252.853 24.27C253.434 23.35 253.854 22.35 254.325 21.6L258.261 14.86C261.586 9.22 256.208 7.33 252.572 10.58L253.293 9.35H249.728L244.16 19L243.919 19.27C243.246 20.0474 242.423 20.681 241.499 21.1329C240.575 21.5849 239.569 21.8458 238.541 21.9L241.896 16.12C244.059 12.39 242.066 8.87 238.711 8.87C235.967 8.87 233.844 9.96 231.791 13.52L230.038 16.52L228.576 19L228.386 19.22C225.812 22.22 223.318 24.56 221.736 24.56C220.944 24.56 220.504 24.01 221.325 22.56L226.463 13.56C228.005 10.86 226.533 8.91 224.54 8.91C222.998 8.91 221.355 9.76 219.532 11.61L225.221 1.72H221.656L211.771 19L211.57 19.23C210.327 20.7003 208.896 22.0014 207.314 23.1C208.446 19.71 208.205 14.51 210.398 9.96L207.724 8.52C206.252 10.52 203.027 15.19 199.812 18.95L199.572 19.22C196.998 22.22 194.504 24.56 192.922 24.56C192.131 24.56 191.69 24.01 192.511 22.56L196.077 16.33C197.309 14.17 196.728 12.91 195.566 11.51L193.563 9.12C193.434 8.9857 193.332 8.82695 193.265 8.65307C193.198 8.47919 193.166 8.29366 193.172 8.10738C193.178 7.9211 193.22 7.73782 193.298 7.56826C193.375 7.39871 193.486 7.24631 193.623 7.12L193.733 7.03L191.88 5.03C189.877 6.84 189.687 8.86 190.959 10.5L191.26 10.91C189.687 13.13 187.564 16.14 185.25 18.91L185.01 19.18C182.436 22.18 179.151 24.52 176.647 24.52C174.454 24.52 173.152 23.15 174.795 20.28L175.135 19.66C177.429 20.66 181.745 20.17 184.419 15.56L184.93 14.67C186.853 11.39 185 8.92 182.086 8.92C180.71 8.92972 179.363 9.31501 178.191 10.0342C177.019 10.7533 176.066 11.779 175.436 13L171.96 19L171.75 19.24C171.079 20.02 170.257 20.6555 169.332 21.1077C168.407 21.5598 167.4 21.8192 166.372 21.87L169.727 16.09C170.516 14.8632 170.978 13.4553 171.069 12C171.093 11.6067 171.04 11.2124 170.912 10.8397C170.783 10.467 170.583 10.1231 170.322 9.82784C170.06 9.53253 169.743 9.29152 169.389 9.11859C169.034 8.94567 168.649 8.8442 168.255 8.82H167.834C166.994 8.84363 166.181 9.11889 165.501 9.61L170.027 1.78H166.392L156.417 19L156.226 19.21C153.653 22.21 151.159 24.55 149.576 24.55C148.785 24.55 148.345 24 149.166 22.55L152.731 16.32C153.963 14.16 153.382 12.9 152.22 11.5L150.217 9.11C150.087 8.97572 149.986 8.81664 149.919 8.64227C149.852 8.4679 149.82 8.28181 149.827 8.09513C149.833 7.90844 149.878 7.72499 149.957 7.55573C150.036 7.38647 150.148 7.23488 150.287 7.11L150.428 7L148.575 5C146.572 6.81 146.382 8.83 147.653 10.47L147.964 10.88C146.392 13.1 144.258 16.11 141.955 18.88L141.715 19.15C139.141 22.15 136.647 24.49 135.064 24.49C134.273 24.49 133.833 23.94 134.654 22.49L140.413 12.43H138.41C138.343 11.4849 137.915 10.6016 137.214 9.96304C136.513 9.32451 135.592 8.97969 134.644 9C132.721 9 130.057 10.51 128.545 13.11L123.537 21.73C122.025 24.37 123.096 26.79 125.971 26.79C127.413 26.79 129.196 25.87 130.908 24.46C131.078 25.83 132.18 26.79 133.993 26.79C136.937 26.79 140.332 23.64 143.277 20.22C144.989 18.22 146.281 16.46 149.166 12.59L149.647 13.17C149.885 13.4406 150.033 13.7784 150.07 14.1366C150.108 14.4948 150.033 14.8559 149.857 15.17L146.091 21.7C144.589 24.34 145.65 26.76 148.525 26.76C150.588 26.76 152.871 25.21 155.075 23.11C155.075 25.54 156.887 26.91 159.191 26.91C160.377 26.8475 161.533 26.5182 162.574 25.9468C163.614 25.3753 164.512 24.5765 165.2 23.61C165.463 23.63 165.728 23.63 165.991 23.61C167.657 23.5309 169.279 23.0506 170.718 22.21C170.528 24.78 172.401 26.73 175.546 26.73C179.552 26.73 183.558 23.58 186.562 20.16C188.275 18.16 189.567 16.4 192.451 12.53L192.932 13.11C193.17 13.3806 193.318 13.7184 193.356 14.0766C193.394 14.4348 193.319 14.7959 193.142 15.11L189.377 21.64C187.864 24.28 188.936 26.7 191.81 26.7C194.685 26.7 198.15 23.55 201.094 20.13C203.097 17.8 204.9 15.31 206.162 13.63C204.76 17.33 205.511 23.96 202.156 23.96C201.782 23.923 201.425 23.7814 201.128 23.5515C200.83 23.3216 200.603 23.0126 200.473 22.66L198.3 23.82C198.529 24.6697 199.04 25.4165 199.75 25.938C200.459 26.4595 201.326 26.7247 202.206 26.69C202.547 26.69 202.877 26.69 203.208 26.62H203.308C205.297 26.2823 207.175 25.4729 208.786 24.26L207.564 26.38H211.16L216.568 16.97C222.056 10.09 224.48 10.97 222.937 13.62L218.31 21.62C216.798 24.25 217.87 26.68 220.744 26.68C222.817 26.68 225.101 25.12 227.304 23.01C227.304 27.55 233.604 28.43 237.469 23.56H238.261C239.584 23.5101 240.882 23.1902 242.076 22.62L235.587 33.86H239.182L249.838 15.35C253.844 9.94 256.318 11.93 255.387 13.54L250.008 22.85C249.911 23.1126 249.736 23.3392 249.506 23.4992C249.276 23.6592 249.002 23.7449 248.721 23.7449C248.441 23.7449 248.167 23.6592 247.937 23.4992C247.707 23.3392 247.532 23.1126 247.435 22.85L245.432 23.85C245.66 24.6997 246.171 25.4466 246.881 25.968C247.591 26.4895 248.457 26.7547 249.337 26.72H249.548C254.726 26.62 258.111 23.54 261.025 20.15C260.882 19.8693 260.682 19.6218 260.437 19.4236C260.192 19.2255 259.908 19.0811 259.603 19ZM178.48 14C180.483 10.48 184.169 11.06 182.046 14.75L181.535 15.64C179.822 18.55 177.529 18.48 176.187 18L178.48 14ZM132.801 19.61C130.638 23 128.515 24.61 127.042 24.61C126.251 24.61 125.81 24.06 126.632 22.61L131.639 13.95C133.562 10.63 137.358 11.49 135.645 14.7L132.801 19.61ZM159.632 24.47C159.287 24.4894 158.949 24.3738 158.689 24.1477C158.429 23.9217 158.268 23.6031 158.24 23.26C158.235 23.2068 158.235 23.1532 158.24 23.1C158.293 22.4422 158.506 21.8073 158.86 21.25L160.062 19C160.155 19.7403 160.405 20.4524 160.796 21.0887C161.186 21.7249 161.707 22.2709 162.326 22.69C162.058 23.1836 161.67 23.6018 161.197 23.9059C160.724 24.21 160.182 24.3903 159.622 24.43L159.632 24.47ZM163.347 21C162.854 20.6248 162.459 20.136 162.195 19.5753C161.932 19.0147 161.808 18.3987 161.835 17.78C161.835 15.25 164.299 11.11 166.322 11.11C166.501 11.11 166.679 11.1455 166.845 11.2145C167.011 11.2834 167.162 11.3845 167.288 11.5119C167.415 11.6392 167.515 11.7903 167.583 11.9565C167.651 12.1226 167.685 12.3006 167.684 12.48C167.689 12.5366 167.689 12.5934 167.684 12.65C167.65 13.4045 167.414 14.1363 167.003 14.77L163.347 21ZM236.538 19.22H236.358C235.801 19.2253 235.268 19.4499 234.876 19.845C234.484 20.2402 234.265 20.7738 234.265 21.33C234.271 21.7528 234.389 22.1666 234.605 22.53V22.6C232.923 25.47 228.846 24.93 230.97 21.23L235.356 13.62C237.86 9.38 241.285 11.05 239.122 14.75L236.538 19.22ZM0 73.26L5.71866 67.54L11.4473 73.26L5.71866 79L0 73.26ZM352.534 73.26L358.262 67.55L363.981 73.27L358.282 79L352.534 73.26Z" fill="white"/>
</svg>
