<svg width="115" height="30" viewBox="0 0 115 30" fill="none" xmlns="http://www.w3.org/2000/svg">
<path d="M43.2592 0H44.6714C50.1096 0.28 54.3761 1.73001 57.0802 4.72001C59.8243 1.72001 64.0908 0.26 69.559 0H70.9111C83.0394 0.82 88.5678 9.49999 98.2525 13.19C99.7579 13.8733 101.396 14.2148 103.05 14.19C105.534 13.92 107.116 11.41 106.795 8.61001C106.455 5.61001 103.51 2.99999 100.225 4.43999C99.7943 4.64199 99.3986 4.91213 99.0537 5.24C98.8033 5.47 98.5229 6.07 97.8819 5.85C97.281 5.35 97.8819 4.62 98.1924 4.2C98.7854 3.14699 99.683 2.29725 100.768 1.76198C101.852 1.22671 103.074 1.03084 104.272 1.2C109.91 1.6 114.958 6.54 114.096 14.02C112.174 25.15 101.978 28.15 89.8898 29.15H85.9538C75.4047 28.7199 65.2859 24.8569 57.1402 18.15C48.9343 24.8399 38.7806 28.6988 28.1964 29.15H24.3306C12.1521 28.08 1.85656 25.15 0.0638422 13.69C-0.617189 5.52999 4.25018 1.52 9.89873 1.11C11.1067 0.938583 12.3383 1.13283 13.4345 1.66763C14.5307 2.20242 15.4411 3.0532 16.048 4.11C16.3285 4.57 16.8492 5.27999 16.3585 5.82999C15.7476 5.93999 15.4471 5.46001 15.1867 5.22001C14.8206 4.839 14.3825 4.53414 13.8978 4.32304C13.413 4.11193 12.8912 3.99874 12.3625 3.99C8.49661 3.85 6.27324 8.14 7.81557 11.6C8.11794 12.2714 8.58637 12.8549 9.1768 13.2958C9.76722 13.7366 10.4602 14.0202 11.1907 14.12C12.8428 14.1314 14.4784 13.7904 15.9879 13.12C17.3345 12.6043 18.6317 11.9684 19.8638 11.22C27.225 6.96001 32.9837 0.91 43.2592 0Z" fill="white"/>
</svg>
