<svg width="162" height="34" viewBox="0 0 162 34" fill="none" xmlns="http://www.w3.org/2000/svg">
<path d="M20.1705 11.3292C27.3311 8.92061 27.922 0 20.8215 0C18.8786 0 16.5451 1.35791 14.9327 4.13321L5.29849 20.5471C4.9038 21.2483 4.4445 21.9119 3.92646 22.5295C1.46282 19.1793 2.18388 14.154 5.63899 11.9536L4.29701 10.1794C-3.17404 14.8875 -0.980793 28.4865 11.4876 28.4865C22.0933 28.4865 27.0306 15.8589 20.1705 11.3292ZM11.3675 25.7706C9.57684 25.8144 7.80577 25.3941 6.22987 24.5515C6.89045 23.7638 7.48654 22.9252 8.01251 22.0438L14.0214 11.7653L15.0229 11.8644C23.3252 13.599 20.0002 25.7706 11.3675 25.7706ZM15.2031 9.70364L18.0874 4.81713C20.6913 0.376648 24.0162 2.98345 22.2335 6.3039C20.8615 8.85122 18.8385 9.63426 15.2031 9.70364Z" fill="white"/>
<path d="M159.737 18.8324L159.497 19.1099C157.773 21.2678 155.536 22.9703 152.987 24.0658C153.568 23.1539 153.988 22.1727 154.459 21.4194L158.395 14.7388C161.72 9.14857 156.342 7.28516 152.707 10.5065L153.428 9.28734H149.862L144.294 18.8324L144.054 19.1C143.379 19.8683 142.555 20.4949 141.632 20.9427C140.708 21.3904 139.703 21.6503 138.676 21.7068L142.031 15.9778C144.184 12.2807 142.201 8.79175 138.846 8.79175C136.102 8.79175 133.979 9.87213 131.926 13.4007L130.173 16.4238L128.711 18.8324L128.521 19.0504C125.947 22.024 123.453 24.3433 121.871 24.3433C121.08 24.3433 120.639 23.7982 121.46 22.4105L126.598 13.4899C128.14 10.8138 126.668 8.88095 124.685 8.88095C123.143 8.88095 121.49 9.72345 119.678 11.5571L125.366 1.75438H121.801L111.896 18.8324L111.696 19.0604C110.455 20.5164 109.028 21.8059 107.45 22.8962C108.581 19.5361 108.351 14.382 110.534 9.87213L107.86 8.44483C106.388 10.4272 103.173 15.056 99.9485 18.7927L99.7081 19.0604C97.1443 22.0339 94.6406 24.3532 93.0683 24.3532C92.2771 24.3532 91.8265 23.8081 92.6477 22.4205L96.213 16.2454C97.4448 14.1045 96.8639 12.8556 95.7022 11.4679L93.6992 9.0891C93.5755 8.94832 93.4821 8.78396 93.4249 8.60614C93.3677 8.42831 93.3479 8.24078 93.3666 8.05509C93.3854 7.8694 93.4423 7.68947 93.534 7.52638C93.6256 7.36328 93.75 7.22048 93.8995 7.10674L92.0468 5.12439C90.0438 6.91842 89.8535 8.9206 91.1254 10.5461L91.4259 10.903C89.8435 13.1133 87.7204 16.0967 85.417 18.8324L85.1766 19.1C82.6028 22.0735 79.318 24.3929 76.8143 24.3929C74.621 24.3929 73.3191 23.035 74.9615 20.1903L75.302 19.5758C77.6054 20.5669 81.9218 20.0813 84.5958 15.502L85.1065 14.6199C87.0194 11.3688 85.1766 8.93051 82.2623 8.93051C80.8792 8.93549 79.5242 9.31734 78.3459 10.0342C77.1676 10.751 76.2115 11.7752 75.5824 12.9943L72.0973 18.8324L71.887 19.0703C71.2138 19.8438 70.3894 20.4744 69.4634 20.9241C68.5374 21.3738 67.529 21.6333 66.499 21.687L69.864 15.9481C70.6465 14.7297 71.1047 13.335 71.196 11.8941C71.2228 11.4708 71.1578 11.0466 71.0053 10.6501C70.8528 10.2537 70.6164 9.89411 70.3119 9.59556C70.0074 9.29701 69.6419 9.0664 69.2399 8.91921C68.8379 8.77202 68.4087 8.71166 67.9812 8.74219C67.1411 8.76252 66.3271 9.03565 65.6477 9.52522L70.1744 1.75438H66.5391L56.5443 18.8324L56.364 19.0405C53.7902 22.0141 51.2865 24.3334 49.7142 24.3334C48.923 24.3334 48.4824 23.7883 49.3036 22.4006L52.8688 16.2256C54.1007 14.0946 53.5198 12.8358 52.3481 11.4481L50.3451 9.06928C50.2232 8.92725 50.1318 8.76224 50.0762 8.58422C50.0206 8.4062 50.002 8.21887 50.0217 8.03356C50.0414 7.84825 50.0988 7.66882 50.1905 7.50611C50.2823 7.3434 50.4064 7.20079 50.5554 7.08692L48.7027 5.10456C46.6997 6.8986 46.5094 8.90078 47.7713 10.5362L48.0818 10.9426C46.5094 13.143 44.3863 16.1265 42.0729 18.872L41.8325 19.1397C39.2687 22.1132 36.765 24.4325 35.1927 24.4325C34.4015 24.4325 33.9508 23.8874 34.7721 22.4997L40.5306 12.5285H38.5276C38.5211 12.0473 38.4187 11.5722 38.2263 11.1302C38.0339 10.6883 37.7553 10.2883 37.4064 9.95315C37.0575 9.61799 36.6453 9.35426 36.1932 9.17707C35.7412 8.99989 35.2582 8.91273 34.7721 8.9206C32.8592 8.9206 30.1853 10.4074 28.673 12.9844L23.6656 21.5284C22.1534 24.1451 23.225 26.5537 26.0992 26.5537C27.5314 26.5537 29.314 25.6319 31.0365 24.2442C31.2068 25.6021 32.2984 26.5537 34.1211 26.5537C37.0655 26.5537 40.4505 23.4315 43.4048 20.0416C45.1174 18.0593 46.4093 16.3148 49.2935 12.4789L49.7743 13.0538C50.0107 13.3231 50.157 13.6584 50.1929 14.0135C50.2287 14.3685 50.1525 14.7258 49.9746 15.0362L46.209 21.5086C44.7068 24.1253 45.7683 26.5338 48.6426 26.5338C50.7056 26.5338 52.989 24.9975 55.1923 22.916C55.1923 25.3246 57.005 26.6825 59.2984 26.6825C60.4985 26.6298 61.6707 26.3068 62.7258 25.7383C63.7809 25.1698 64.6912 24.3707 65.3874 23.4017C65.6475 23.4166 65.9083 23.4166 66.1685 23.4017C67.8369 23.3207 69.4613 22.8448 70.9055 22.0141C70.7152 24.5614 72.588 26.4942 75.7327 26.4942C79.7386 26.4942 83.7445 23.372 86.749 19.9822C88.4615 17.9998 89.7534 16.2553 92.6477 12.4195L93.1284 12.9943C93.3622 13.265 93.5068 13.6001 93.5426 13.9544C93.5784 14.3088 93.5037 14.6655 93.3287 14.9767L89.5631 21.459C88.0509 24.0658 89.1125 26.4744 91.9967 26.4744C94.881 26.4744 98.3361 23.3522 101.28 19.9623C103.283 17.6628 105.086 15.1848 106.348 13.5197C104.946 17.187 105.697 23.7585 102.342 23.7585C101.969 23.7201 101.615 23.5789 101.319 23.3512C101.024 23.1234 100.799 22.8181 100.67 22.47L98.4362 23.6297C98.6649 24.4719 99.1761 25.2122 99.8857 25.729C100.595 26.2459 101.462 26.5087 102.342 26.4744C102.677 26.4714 103.011 26.4482 103.343 26.405C103.343 26.405 103.414 26.405 103.454 26.405C105.439 26.0672 107.313 25.2653 108.922 24.0658L107.7 26.1671H111.295L116.633 16.85C122.111 10.0406 124.545 10.903 123.003 13.5296L118.376 21.459C116.874 24.0658 117.935 26.4744 120.809 26.4744C122.882 26.4744 125.176 24.938 127.369 22.8467C127.369 27.3367 133.678 28.2188 137.534 23.3918H138.325C139.647 23.3337 140.944 23.017 142.141 22.4601L135.651 33.7001H139.247L149.902 15.3533C153.908 9.99107 156.382 11.9635 155.451 13.5494L150.073 22.7773C149.492 23.7685 148.16 24.1055 147.509 22.7773L145.506 23.7685C145.735 24.6107 146.246 25.3509 146.955 25.8678C147.665 26.3847 148.531 26.6475 149.412 26.6131H149.612C154.79 26.514 158.185 23.4612 161.089 20.1011C160.966 19.8074 160.783 19.5427 160.55 19.3241C160.317 19.1054 160.04 18.9379 159.737 18.8324ZM78.6169 13.8765C80.67 10.3875 84.3053 10.9624 82.1822 14.6199L81.6614 15.502C79.9489 18.3864 77.6555 18.317 76.3235 17.8412L78.6169 13.8765ZM32.9394 19.437C30.7862 22.7971 28.663 24.3929 27.1909 24.3929C26.3997 24.3929 25.949 23.8577 26.7702 22.47L31.7776 13.8864C33.6905 10.5957 37.4961 11.4481 35.7836 14.6298L32.9394 19.437ZM59.769 24.2541C59.5817 24.2696 59.3931 24.2457 59.2157 24.1839C59.0384 24.1221 58.8763 24.0238 58.74 23.8955C58.6038 23.7673 58.4966 23.6119 58.4254 23.4396C58.3542 23.2674 58.3206 23.0822 58.3269 22.8962C58.3778 22.2436 58.5911 21.6137 58.9478 21.0625L60.1997 18.8324C60.2901 19.5683 60.5389 20.2765 60.9293 20.9091C61.3197 21.5418 61.8428 22.0842 62.463 22.4997C62.1915 22.9873 61.8008 23.3997 61.3267 23.6992C60.8526 23.9988 60.3102 24.1759 59.749 24.2145L59.769 24.2541ZM63.4846 20.8147C62.9932 20.4433 62.5993 19.9603 62.3361 19.4066C62.0729 18.8528 61.9481 18.2445 61.9723 17.6331C61.9723 15.1155 64.446 11.012 66.469 11.012C66.6615 11.0145 66.8513 11.0574 67.0259 11.1379C67.2005 11.2184 67.3558 11.3345 67.4817 11.4788C67.6076 11.623 67.7011 11.7921 67.7561 11.9747C67.8112 12.1574 67.8264 12.3495 67.8009 12.5384C67.7641 13.2889 67.5293 14.0168 67.1199 14.6496L63.4846 20.8147ZM136.673 19.0504H136.493C135.934 19.0557 135.4 19.2797 135.008 19.6735C134.615 20.0673 134.397 20.5988 134.399 21.1517C134.404 21.5712 134.521 21.9819 134.74 22.3412V22.4105C133.057 25.2552 128.981 24.72 131.105 21.0526L133.819 16.404L135.531 13.5296C138.025 9.31707 141.46 10.9823 139.297 14.6496L136.673 19.0504Z" fill="white"/>
</svg>
