<svg width="24" height="21" viewBox="0 0 24 21" fill="none" xmlns="http://www.w3.org/2000/svg">
<path d="M22.8837 0H22.7787C21.7295 3.26733 21.4567 7.24753 18.5818 8.76238C18.0467 7.33663 16.7247 6.68317 15.2348 6.05941C14.3104 5.54245 13.3045 5.1681 12.255 4.9505C12.0188 4.91898 11.7782 4.96438 11.573 5.07921C11.3707 4.9666 11.1343 4.92128 10.9015 4.9505C9.85562 5.16911 8.85331 5.54343 7.93216 6.05941C6.43177 6.68317 5.12023 7.33663 4.58513 8.76238C1.68926 7.24753 1.41646 3.26733 0.377722 0H0.272799C0.152831 0.322296 0.0615811 0.653478 0 0.990099C0.0491909 5.03502 0.336422 9.07425 0.860367 13.0891C1.41646 15.7624 3.59885 17.6832 5.71829 18.9505C7.1977 19.802 9.54798 21 11.5415 21C13.535 21 15.9483 19.802 17.4382 18.9505C19.5366 17.6832 21.7295 15.7624 22.2961 13.0891C22.82 9.07425 23.1073 5.03502 23.1565 0.990099C23.0949 0.653478 23.0036 0.322296 22.8837 0V0ZM16.5883 11.8812C16.5282 12.244 16.3508 12.5805 16.0804 12.8445C15.8099 13.1086 15.4596 13.2874 15.0774 13.3564C13.7344 13.4257 13.0524 11.4851 11.5415 11.495C10.0306 11.505 9.34862 13.4257 8.00561 13.3564C7.62916 13.282 7.28578 13.1008 7.0214 12.8371C6.75703 12.5735 6.58426 12.24 6.5262 11.8812C6.47577 11.4544 6.51664 11.0225 6.64641 10.6109C6.77618 10.1993 6.99219 9.81649 7.28164 9.48515C7.77478 9.0297 8.55121 9.08911 9.3801 8.9802C10.1707 8.92852 10.9253 8.64853 11.5415 8.17822C12.1606 8.66131 12.9229 8.95182 13.7239 9.0099C14.5633 9.11881 15.3397 9.05941 15.8224 9.51485C16.1152 9.83949 16.3366 10.216 16.4735 10.6223C16.6105 11.0286 16.6602 11.4565 16.6198 11.8812H16.5883Z" fill="#826550"/>
</svg>
