<svg width="50" height="60" viewBox="0 0 50 60" fill="none" xmlns="http://www.w3.org/2000/svg">
<path d="M0 0H50V50L25 60L0 50V0Z" fill="black"/>
<path d="M20.7713 38.344C20.7713 38.6213 20.7393 38.8987 20.6753 39.176C20.6113 39.4533 20.51 39.7147 20.3713 39.96C20.2326 40.2053 20.0566 40.424 19.8433 40.616C19.6406 40.808 19.39 40.952 19.0913 41.048V41.112C19.3473 41.1653 19.5926 41.256 19.8273 41.384C20.062 41.5013 20.27 41.672 20.4513 41.896C20.6326 42.1093 20.7766 42.376 20.8833 42.696C20.99 43.0053 21.0433 43.3787 21.0433 43.816C21.0433 44.392 20.9526 44.8933 20.7713 45.32C20.59 45.736 20.3393 46.0773 20.0193 46.344C19.71 46.6107 19.3473 46.808 18.9313 46.936C18.526 47.064 18.094 47.128 17.6353 47.128C17.486 47.128 17.31 47.128 17.1073 47.128C16.9153 47.128 16.7073 47.1173 16.4833 47.096C16.2593 47.0853 16.0353 47.064 15.8113 47.032C15.598 47.0107 15.4006 46.9733 15.2193 46.92V35.896C15.5393 35.832 15.9126 35.7787 16.3393 35.736C16.7766 35.6933 17.246 35.672 17.7473 35.672C18.11 35.672 18.4726 35.7093 18.8353 35.784C19.198 35.848 19.5233 35.976 19.8113 36.168C20.0993 36.36 20.3286 36.632 20.4993 36.984C20.6806 37.3253 20.7713 37.7787 20.7713 38.344ZM17.7313 46.024C18.0193 46.024 18.286 45.9813 18.5313 45.896C18.7766 45.8 18.99 45.6613 19.1713 45.48C19.3633 45.2987 19.5126 45.08 19.6193 44.824C19.726 44.5573 19.7793 44.248 19.7793 43.896C19.7793 43.4587 19.71 43.1067 19.5713 42.84C19.4433 42.5627 19.2726 42.3493 19.0593 42.2C18.846 42.0507 18.6006 41.9493 18.3233 41.896C18.0566 41.8427 17.7793 41.816 17.4913 41.816H16.4193V45.912C16.4833 45.9333 16.5633 45.9493 16.6593 45.96C16.766 45.9707 16.878 45.9813 16.9953 45.992C17.1233 46.0027 17.2513 46.0133 17.3793 46.024C17.5073 46.024 17.6246 46.024 17.7313 46.024ZM17.0753 40.776C17.2246 40.776 17.3953 40.7707 17.5873 40.76C17.7793 40.7493 17.9393 40.7333 18.0673 40.712C18.462 40.552 18.798 40.296 19.0753 39.944C19.3633 39.5813 19.5073 39.1387 19.5073 38.616C19.5073 38.264 19.4593 37.9707 19.3633 37.736C19.2673 37.4907 19.134 37.2987 18.9633 37.16C18.8033 37.0213 18.6113 36.9253 18.3873 36.872C18.1633 36.808 17.9286 36.776 17.6833 36.776C17.406 36.776 17.1553 36.7867 16.9313 36.808C16.7073 36.8187 16.5366 36.8347 16.4193 36.856V40.776H17.0753ZM22.7506 35.8H27.7266V36.904H23.9506V40.696H27.4226V41.8H23.9506V45.896H27.8066V47H22.7506V35.8ZM29.6099 35.912C29.9513 35.816 30.3139 35.752 30.6979 35.72C31.0819 35.688 31.4606 35.672 31.8339 35.672C32.2606 35.672 32.6819 35.72 33.0979 35.816C33.5139 35.912 33.8873 36.088 34.2179 36.344C34.5593 36.6 34.8313 36.952 35.0339 37.4C35.2473 37.848 35.3539 38.4187 35.3539 39.112C35.3539 39.784 35.2526 40.3547 35.0499 40.824C34.8579 41.2933 34.5966 41.6773 34.2659 41.976C33.9459 42.264 33.5726 42.4773 33.1459 42.616C32.7299 42.744 32.2979 42.808 31.8499 42.808C31.8073 42.808 31.7379 42.808 31.6419 42.808C31.5459 42.808 31.4446 42.808 31.3379 42.808C31.2313 42.7973 31.1246 42.7867 31.0179 42.776C30.9219 42.7653 30.8526 42.7547 30.8099 42.744V47H29.6099V35.912ZM31.8979 36.776C31.6846 36.776 31.4766 36.7867 31.2739 36.808C31.0819 36.8187 30.9273 36.84 30.8099 36.872V41.64C30.8526 41.6613 30.9166 41.6773 31.0019 41.688C31.0979 41.688 31.1939 41.6933 31.2899 41.704C31.3859 41.704 31.4766 41.704 31.5619 41.704C31.6579 41.704 31.7273 41.704 31.7699 41.704C32.0686 41.704 32.3566 41.6667 32.6339 41.592C32.9113 41.5173 33.1566 41.384 33.3699 41.192C33.5833 40.9893 33.7539 40.7227 33.8819 40.392C34.0206 40.0507 34.0899 39.624 34.0899 39.112C34.0899 38.664 34.0259 38.2907 33.8979 37.992C33.7806 37.6933 33.6206 37.4533 33.4179 37.272C33.2259 37.0907 32.9966 36.9627 32.7299 36.888C32.4633 36.8133 32.1859 36.776 31.8979 36.776Z" fill="white"/>
<path d="M22.2338 14.04C22.2338 15.08 22.0838 16.15 21.7838 17.25C21.4838 18.33 21.0938 19.39 20.6138 20.43C20.1538 21.47 19.6438 22.46 19.0838 23.4C18.5238 24.34 17.9738 25.17 17.4338 25.89L16.1138 27.12V27.27L17.9138 26.82H22.5638V30H12.0338V27.93C12.4538 27.41 12.9038 26.82 13.3838 26.16C13.8838 25.48 14.3738 24.77 14.8538 24.03C15.3538 23.27 15.8338 22.49 16.2938 21.69C16.7538 20.87 17.1538 20.06 17.4938 19.26C17.8538 18.44 18.1338 17.64 18.3338 16.86C18.5538 16.08 18.6638 15.35 18.6638 14.67C18.6638 13.83 18.4638 13.15 18.0638 12.63C17.6638 12.11 17.0438 11.85 16.2038 11.85C15.6838 11.85 15.1638 11.97 14.6438 12.21C14.1238 12.43 13.6838 12.7 13.3238 13.02L11.9738 10.41C12.6138 9.85 13.3538 9.41 14.1938 9.09C15.0338 8.75 16.0238 8.58 17.1638 8.58C17.8838 8.58 18.5538 8.7 19.1738 8.94C19.7938 9.16 20.3238 9.5 20.7638 9.96C21.2238 10.42 21.5838 10.99 21.8438 11.67C22.1038 12.35 22.2338 13.14 22.2338 14.04ZM25.61 15.57C25.61 13.45 26.11 11.76 27.11 10.5C28.13 9.22 29.59 8.58 31.49 8.58C33.35 8.58 34.83 9.24 35.93 10.56C37.05 11.88 37.61 13.86 37.61 16.5C37.61 18.82 37.36 20.83 36.86 22.53C36.36 24.21 35.69 25.61 34.85 26.73C34.01 27.85 33.04 28.71 31.94 29.31C30.84 29.91 29.7 30.28 28.52 30.42L27.68 27.42C29.48 27.06 30.88 26.28 31.88 25.08C32.88 23.86 33.52 22.39 33.8 20.67C33.42 21.17 33.01 21.52 32.57 21.72C32.13 21.92 31.56 22.02 30.86 22.02C30.24 22.02 29.61 21.9 28.97 21.66C28.35 21.4 27.79 21.01 27.29 20.49C26.79 19.95 26.38 19.28 26.06 18.48C25.76 17.66 25.61 16.69 25.61 15.57ZM29.06 15.36C29.06 16.5 29.3 17.37 29.78 17.97C30.28 18.55 30.91 18.84 31.67 18.84C32.25 18.84 32.74 18.74 33.14 18.54C33.54 18.32 33.85 18.02 34.07 17.64C34.11 17.42 34.13 17.19 34.13 16.95C34.15 16.71 34.16 16.48 34.16 16.26C34.16 15.64 34.11 15.06 34.01 14.52C33.91 13.96 33.75 13.48 33.53 13.08C33.31 12.68 33.03 12.36 32.69 12.12C32.35 11.88 31.94 11.76 31.46 11.76C30.7 11.76 30.11 12.08 29.69 12.72C29.27 13.36 29.06 14.24 29.06 15.36Z" fill="white"/>
</svg>
