<svg width="19" height="19" viewBox="0 0 19 19" fill="none" xmlns="http://www.w3.org/2000/svg">
<path d="M19 0H0V19H19V0ZM9.5 6.01667C11.4241 6.01667 12.9833 7.57657 12.9833 9.5C12.9833 11.4228 11.4241 12.9833 9.5 12.9833C7.57657 12.9833 6.01667 11.4228 6.01667 9.5C6.01667 7.57657 7.57657 6.01667 9.5 6.01667ZM16.4667 16.4667H2.53333V7.91667H4.02737C3.88233 8.41953 3.8 8.95027 3.8 9.5C3.8 12.6477 6.35297 15.2 9.5 15.2C12.6489 15.2 15.2 12.6477 15.2 9.5C15.2 8.95027 15.1177 8.41953 14.9726 7.91667H16.4667V16.4667ZM16.4667 3.17173V5.08187V5.7C16.4667 5.7 16.1836 5.69303 15.8435 5.69873V5.7H13.9333C13.5882 5.7 13.3 5.7 13.3 5.7V2.53333H15.8333L15.8435 2.53523C15.8435 2.53523 16.4667 2.5384 16.4667 2.53333C16.4667 2.53333 16.4654 3.16983 16.4654 3.17173H16.4667Z" fill="white"/>
</svg>
