<svg width="46" height="12" viewBox="0 0 46 12" fill="none" xmlns="http://www.w3.org/2000/svg">
<path d="M22.643 7.66533C23.6128 9.00676 24.9285 10.1044 26.4715 10.8594C28.0146 11.6143 29.7367 12.003 31.4827 11.9904C38.6914 12.2508 45.3061 7.13516 45.3061 5.2191C42.5072 7.53511 37.8658 7.74904 35.2884 6.79101C31.4827 5.39582 32.1472 2.61475 29.3684 0.801C28.5217 0.279504 27.5268 0.00122301 26.5091 0.00122301C25.4914 0.00122301 24.4966 0.279504 23.6498 0.801C23.2782 1.00811 22.9394 1.26164 22.643 1.5544C22.3444 1.26379 22.0059 1.0105 21.6362 0.801C20.7879 0.278702 19.7913 0 18.7718 0C17.7524 0 16.7558 0.278702 15.9075 0.801C13.1388 2.66125 13.8033 5.38652 9.99755 6.79101C7.42014 7.72114 2.77878 7.53511 0 5.2191C0 7.13516 6.59456 12.2508 13.8033 11.9904C15.5493 12.003 17.2714 11.6143 18.8145 10.8594C20.3575 10.1044 21.6732 9.00676 22.643 7.66533Z" fill="#826550"/>
</svg>
