<svg width="103" height="99" viewBox="0 0 103 99" fill="none" xmlns="http://www.w3.org/2000/svg">
<g filter="url(#filter0_d_1_779)">
<path d="M51.5252 8.0812C53.3452 8.07532 55.126 8.59881 56.6422 9.58537C58.1584 10.5719 59.3417 11.9772 60.0423 13.6232C60.743 15.2692 60.9294 17.082 60.578 18.8319C60.2266 20.5818 59.3532 22.1902 58.0684 23.4533C56.7836 24.7165 55.1452 25.5777 53.3606 25.9278C51.5761 26.2779 49.7256 26.1012 48.0436 25.42C46.3616 24.7389 44.9236 23.584 43.9119 22.1015C42.9001 20.619 42.3601 18.8756 42.36 17.0922C42.36 14.7074 43.3247 12.42 45.0426 10.7309C46.7606 9.04188 49.0917 8.08905 51.5252 8.0812Z" fill="#826550"/>
<path d="M72.0965 26.0933H30.954C30.2008 26.0959 29.4794 26.3909 28.9478 26.9137C28.4161 27.4366 28.1176 28.1445 28.1176 28.8826V33.304C28.1203 34.0413 28.4196 34.7478 28.9507 35.27C29.4818 35.7923 30.2017 36.0882 30.954 36.0934H31.7918V80.99H30.954C30.2008 80.9926 29.4794 81.2877 28.9478 81.8105C28.4161 82.3333 28.1176 83.0413 28.1176 83.7793V88.2008C28.1176 88.9398 28.4158 89.6488 28.9472 90.1732C29.4785 90.6976 30.1999 90.9948 30.954 91H72.0965C72.8506 90.9974 73.5731 90.7027 74.1063 90.1801C74.6395 89.6576 74.9403 88.9496 74.9429 88.2107V83.7793C74.9403 83.0404 74.6395 82.3324 74.1063 81.8099C73.5731 81.2873 72.8506 80.9926 72.0965 80.99H71.2587V36.0934H72.0965C72.8506 36.0908 73.5731 35.796 74.1063 35.2735C74.6395 34.751 74.9403 34.043 74.9429 33.304V28.8826C74.9403 28.1436 74.6395 27.4357 74.1063 26.9131C73.5731 26.3906 72.8506 26.0959 72.0965 26.0933ZM37.9793 36.0934H51.3032L37.9793 49.1499V36.0934ZM65.0712 80.99H51.4445L65.0712 67.6664V80.99ZM65.0712 52.5921L37.9793 79.1304V64.2242L65.0712 37.676V52.5921Z" fill="#826550"/>
<path d="M51.5252 1.24221e-07C41.5443 -0.000714055 31.8166 3.07809 23.7217 8.79973C15.6268 14.5214 9.57584 22.5954 6.42697 31.8765C3.27811 41.1576 3.19124 51.1747 6.1787 60.5069C9.16615 69.8392 15.0763 78.0127 23.0707 83.8684V83.7793C23.0761 82.3468 23.4847 80.9435 24.2517 79.7239C17.238 74.1959 12.1476 66.6713 9.68289 58.1881C7.21816 49.705 7.50052 40.6814 10.491 32.3622C13.4815 24.0429 19.0327 16.8381 26.3789 11.7415C33.7251 6.645 42.5042 3.90793 51.5051 3.90793C60.5059 3.90793 69.285 6.645 76.6312 11.7415C83.9774 16.8381 89.5286 24.0429 92.5191 32.3622C95.5096 40.6814 95.7919 49.705 93.3272 58.1881C90.8625 66.6713 85.7721 74.1959 78.7584 79.7239C79.5328 80.9408 79.9453 82.3453 79.9495 83.7793V83.8684C87.9356 78.0111 93.8389 69.8401 96.8231 60.5127C99.8074 51.1852 99.7214 41.1742 96.5773 31.8973C93.4332 22.6204 87.3904 14.548 79.3048 8.82329C71.2192 3.09857 61.5005 0.0117458 51.5252 1.24221e-07Z" fill="#826550"/>
</g>
<defs>
<filter id="filter0_d_1_779" x="0" y="0" width="103" height="99" filterUnits="userSpaceOnUse" color-interpolation-filters="sRGB">
<feFlood flood-opacity="0" result="BackgroundImageFix"/>
<feColorMatrix in="SourceAlpha" type="matrix" values="0 0 0 0 0 0 0 0 0 0 0 0 0 0 0 0 0 0 127 0" result="hardAlpha"/>
<feOffset dy="4"/>
<feGaussianBlur stdDeviation="2"/>
<feComposite in2="hardAlpha" operator="out"/>
<feColorMatrix type="matrix" values="0 0 0 0 0 0 0 0 0 0 0 0 0 0 0 0 0 0 0.25 0"/>
<feBlend mode="normal" in2="BackgroundImageFix" result="effect1_dropShadow_1_779"/>
<feBlend mode="normal" in="SourceGraphic" in2="effect1_dropShadow_1_779" result="shape"/>
</filter>
</defs>
</svg>
