<svg width="95" height="94" viewBox="0 0 95 94" fill="none" xmlns="http://www.w3.org/2000/svg">
<path d="M93.3604 41.793C93.5556 43.524 93.6561 45.2645 93.6602 47.0068C93.6467 59.3264 88.7435 71.1383 80.0244 79.8535C71.305 88.569 59.4811 93.4755 47.1445 93.499C46.7322 93.499 46.3204 93.4833 45.8994 93.4658C45.7014 93.4576 45.5011 93.4489 45.2998 93.4424C45.4391 92.9039 45.5163 92.3506 45.5264 91.793V91.7744C45.5181 91.3383 45.4732 90.9041 45.3955 90.4756C45.9655 90.4967 46.5355 90.5068 47.1055 90.5068C58.6556 90.5042 69.732 85.9204 77.8984 77.7627C86.0648 69.605 90.6523 58.5416 90.6523 47.0059C90.6523 45.9138 90.5994 44.8329 90.5215 43.7568C91.4972 43.1454 92.4443 42.49 93.3604 41.793ZM78.2383 10.0645C69.5522 27.3532 59.897 43.6117 45.7471 55.3555L45.4023 55.6406L45.6484 56.0146C47.095 58.2153 48.7744 59.3065 50.0859 60.4062C50.7472 60.9608 51.3243 61.5202 51.791 62.2354C52.1976 62.8584 52.5311 63.6168 52.752 64.6162L52.8398 65.0596C53.6937 69.9554 52.0603 74.078 49.252 77.3281C46.4344 80.5889 42.4403 82.9593 38.6348 84.2949L38.4072 84.375L38.3281 84.6016C37.5603 86.7974 38.4668 88.6977 39.0215 90.082C39.3153 90.8154 39.491 91.3526 39.4551 91.791C39.4271 92.1322 39.2603 92.4801 38.6484 92.833C37.5588 92.7649 36.7448 92.3205 36.1338 91.6279C35.4851 90.8926 35.0456 89.8552 34.7949 88.6377C34.2928 86.1985 34.5797 83.1916 35.251 80.9473L35.3301 80.6846L35.1504 80.4766C31.0755 75.7757 31.5311 70.1855 33.6504 64.7002C35.7785 59.192 39.5078 53.9728 41.8096 50.0537C43.1624 47.7498 44.3409 45.2051 45.4932 42.793C46.6517 40.3677 47.783 38.0788 49.0566 36.2295L49.0557 36.2285C52.2729 31.5747 57.4754 26.4259 62.8252 21.7197C68.1052 17.0749 73.5024 12.8863 77.2188 10.0645H78.2383ZM34.5762 2.19922C40.8086 0.46857 47.3337 0.053806 53.7354 0.982422C59.8995 1.87663 65.8188 3.99759 71.1436 7.21582C70.2848 7.87909 69.4385 8.53472 68.6182 9.18359C62.0696 5.4685 54.667 3.51044 47.1318 3.50586C39.4833 3.50125 31.9682 5.50763 25.3428 9.32422C18.7172 13.1409 13.2146 18.6333 9.38867 25.248C5.56289 31.8627 3.54903 39.3669 3.54883 47.0059C3.54711 55.3274 5.93601 63.4748 10.4326 70.4805C14.8721 77.397 21.1826 82.9124 28.6289 86.3936C28.6455 87.5481 28.7688 88.6979 28.9961 89.8291C23.3325 87.4495 18.1931 83.9737 13.8779 79.5967C9.33943 74.9931 5.81154 69.4953 3.51953 63.4541C1.22754 57.4129 0.222083 50.9609 0.566406 44.5098C0.91075 38.0587 2.59747 31.7499 5.51953 25.9863C8.44168 20.2226 12.5352 15.1298 17.5381 11.0342C22.5409 6.93874 28.3438 3.92989 34.5762 2.19922ZM44.5898 62.083C42.9302 61.864 41.2883 62.4844 39.9141 63.6221C37.1742 65.8902 35.3653 70.3098 36.3311 74.9766L36.3584 75.1055L36.4453 75.2051C37.9385 76.9052 39.5361 77.6949 41.1162 77.7139C42.6872 77.7327 44.1387 76.9884 45.3467 75.8301C47.7504 73.5251 49.3385 69.4487 49.2041 65.624L49.1992 65.4883L49.127 65.374L48.8828 65.0068C47.6471 63.2306 46.1545 62.2896 44.5898 62.083ZM23.5557 33.5C28.4358 33.123 33.4398 34.7031 35.7529 38.2266H35.7539C37.6105 41.0536 38.0259 43.6799 37.5449 46.1709C37.0701 48.6296 35.7119 50.9998 33.8994 53.3291C27.3285 54.3412 21.0322 53.9091 16.9053 51.7998C14.8333 50.7408 13.3344 49.2738 12.5898 47.377C11.845 45.4793 11.8271 43.0799 12.8564 40.1025V40.1016C14.201 36.1896 18.6697 33.8775 23.5557 33.5ZM47.1035 45.5078C46.2887 45.511 45.508 45.8355 44.9316 46.4111C44.3553 46.9867 44.0305 47.7668 44.0273 48.5811C44.025 49.1924 44.2044 49.7906 44.543 50.2998C44.8815 50.809 45.3639 51.2065 45.9287 51.4414C46.4933 51.6761 47.115 51.7386 47.7148 51.6201C48.3147 51.5015 48.8662 51.2073 49.2988 50.7754C49.7315 50.3433 50.0266 49.792 50.1455 49.1924C50.2644 48.5927 50.2021 47.9706 49.9668 47.4062C49.7315 46.8422 49.3338 46.3604 48.8242 46.0225C48.3145 45.6844 47.7153 45.5055 47.1035 45.5078ZM93.7773 33.3428C89.6823 38.0226 83.8927 41.0487 77.4248 43.4951C73.9692 44.8022 70.3373 45.9384 66.6826 47.0752C63.7797 47.9782 60.8626 48.8833 58.0225 49.8711C58.5324 49.3891 59.0478 48.9096 59.5645 48.4258C60.6423 47.4165 61.7226 46.3897 62.7432 45.2959C64.7248 43.1721 66.492 40.7818 67.6279 37.7217C72.3461 37.1483 76.8451 36.356 81.3057 35.5361C85.4445 34.7754 89.5472 33.9944 93.7773 33.3428ZM28.6689 38.3027C26.748 37.6477 24.4188 37.4649 22.3066 37.8213C20.2045 38.1761 18.2289 39.0827 17.1279 40.6963C16.0047 42.3427 15.8797 44.5907 17.209 47.4092L17.5801 47.3252L17.4355 47.6113C20.2561 49.0405 24.5515 49.6402 27.8906 48.9092C29.5627 48.5431 31.064 47.8279 31.999 46.6416C32.9535 45.4304 33.2537 43.8105 32.6738 41.7969C32.1942 40.1081 30.5675 38.9502 28.6689 38.3027ZM81.8926 16.1406C85.0315 19.6725 87.617 23.658 89.5615 27.9629C89.0953 28.0407 88.629 28.1191 88.1621 28.1963C87.6066 28.2881 87.0505 28.3803 86.4941 28.4736C84.8787 25.0588 82.826 21.8686 80.3867 18.9824C80.6672 18.453 80.949 17.924 81.2295 17.3945C81.4508 16.9767 81.6712 16.5584 81.8926 16.1406Z" fill="#826550" stroke="black"/>
</svg>
