<svg width="15" height="17" viewBox="0 0 15 17" fill="none" xmlns="http://www.w3.org/2000/svg">
<path d="M13.7334 15.1476C14.5777 14.1554 15 13.0283 15 11.7661C15 9.65731 13.291 8.18402 10.8981 7.65262C11.9277 7.39511 12.7018 7.11184 13.2212 6.42675C13.7403 5.74166 13.9999 4.97504 13.9999 4.1282C13.9999 2.9656 13.5529 2.26258 12.659 1.35754C11.7649 0.452494 10.3428 0 8.39224 0H0V17H8.80485C11.5682 17.0001 12.889 16.1398 13.7334 15.1476ZM4.66665 3.36207H6.76663C8.03079 3.36207 8.6631 3.79467 8.6631 4.74113C8.6631 5.08981 8.52764 5.74569 8.25684 6.05278C7.98581 6.35999 7.5205 6.51356 6.86149 6.51356H4.66671L4.66665 3.36207ZM4.64214 13.214V10.1253H7.21591C8.04659 10.1253 8.61795 10.2894 8.92946 10.6172C9.2408 10.9453 9.39691 11.3042 9.39691 11.6945C9.39691 12.085 9.23642 12.4354 8.91603 12.7469C8.59523 13.0586 8.09163 13.214 7.40551 13.214H4.64214Z" fill="white"/>
</svg>
